<svg xmlns="http://www.w3.org/2000/svg" viewBox="473 367 333.441 57.382">
  <defs>
    <style>
      .cls-1 {
        fill: #929497;
      }

      .cls-2 {
        fill: #34bec2;
      }

      .cls-3 {
        fill: #fff;
        opacity: 0.5;
      }
    </style>
  </defs>
  <g id="Group_3370" data-name="Group 3370" transform="translate(110.304 -111)">
    <g id="Group_3370-2" data-name="Group 3370" transform="translate(532.966 486.26)">
      <g id="Group_3368" data-name="Group 3368" transform="translate(0 0)">
        <path id="Path_506" data-name="Path 506" class="cls-1" d="M267.434,168.291h.058q8.577,0,13.566,4.707a11.658,11.658,0,0,1,2.294,2.892A11.286,11.286,0,0,1,281.6,189.8a13.966,13.966,0,0,1-3.411,2.582c-.881.439-1.322.669-1.322.687q8.033,13.884,8.349,14.457a3.505,3.505,0,0,1,.085.487,1.461,1.461,0,0,1-1.119,1.377,2.481,2.481,0,0,1-.316.03c-.688,0-1.245-.489-1.661-1.463l-8.118-13.972a25.763,25.763,0,0,1-6.453.805h-.145q-1.9,0-4.186-.229V207.9a1.471,1.471,0,0,1-1.061,1.461,1.389,1.389,0,0,1-.346.06h-.027a1.417,1.417,0,0,1-1.408-1.119,4.511,4.511,0,0,1-.056-.517q-.031-19.936-.027-37.028v-.346c0-.954.589-1.5,1.777-1.635A34.723,34.723,0,0,1,267.434,168.291Zm-4.186,22.056c0,.059.019.316.058.775v.545a39.973,39.973,0,0,0,4.389.26q7.278,0,11.615-3.789a8.7,8.7,0,0,0,2.78-6.194v-.4a9.224,9.224,0,0,0-2.749-6.311q-4.275-4.073-11.59-4.073a27.4,27.4,0,0,0-4.5.372v18.817Z" transform="translate(-260.38 -168.291)"/>
        <path id="Path_507" data-name="Path 507" class="cls-1" d="M343.071,168.291h.229a18.864,18.864,0,0,1,11.9,4.331,21.516,21.516,0,0,1,3.156,3.268,21.061,21.061,0,0,1,4.387,12.821V189a21.009,21.009,0,0,1-4.242,12.62,20.63,20.63,0,0,1-4.218,4.16,18.811,18.811,0,0,1-10.984,3.643h-.229a18.777,18.777,0,0,1-11.877-4.331,23.058,23.058,0,0,1-3.182-3.272A21.134,21.134,0,0,1,323.651,189v-.289a20.625,20.625,0,0,1,8.462-16.775A18.751,18.751,0,0,1,343.071,168.291Zm-16.579,20.568a18.3,18.3,0,0,0,4.5,12.134,16.1,16.1,0,0,0,24.094.342,18.573,18.573,0,0,0,.316-24.609,16.1,16.1,0,0,0-24.093-.345A18.148,18.148,0,0,0,326.492,188.859Z" transform="translate(-296.146 -168.291)"/>
        <path id="Path_508" data-name="Path 508" class="cls-1" d="M431.967,168.355q9.062,0,13.369,4.763a8.164,8.164,0,0,1,1.921,5.19q0,4.534-4.848,8.176a18.453,18.453,0,0,1-3.445,1.865,11.54,11.54,0,0,0-1.2.489,17.551,17.551,0,0,1,6.339,3.527,9.181,9.181,0,0,1,3.157,6.567v.03q0,4.988-5.566,8.2a22.517,22.517,0,0,1-10.553,2.3h-.06a36.476,36.476,0,0,1-5.993-.519,1.527,1.527,0,0,1-.948-1.348V170.335a1.422,1.422,0,0,1,1.089-1.376A40.164,40.164,0,0,1,431.967,168.355Zm-4.935,3.243V187.43h.491a2.67,2.67,0,0,1,.43.028q8.521,0,13.568-3.9,2.839-2.5,2.837-5.335,0-3.268-4.131-5.421a20.587,20.587,0,0,0-8.6-1.547C429.866,171.311,428.337,171.428,427.032,171.6Zm.29,18.872h-.289V206.3a40.994,40.994,0,0,0,4.19.256q8.088,0,11.819-4.071a5.6,5.6,0,0,0,1.316-3.528q0-3.355-4.244-6-4.559-2.521-12.018-2.521A6.949,6.949,0,0,1,427.321,190.469Z" transform="translate(-352.95 -168.327)"/>
        <path id="Path_509" data-name="Path 509" class="cls-1" d="M502.671,168.291h.228a18.864,18.864,0,0,1,11.9,4.331,21.519,21.519,0,0,1,3.156,3.268,21.061,21.061,0,0,1,4.389,12.821V189a20.978,20.978,0,0,1-4.245,12.62,20.58,20.58,0,0,1-4.219,4.16,18.793,18.793,0,0,1-10.983,3.643h-.228a18.8,18.8,0,0,1-11.879-4.331,23.066,23.066,0,0,1-3.18-3.272A21.131,21.131,0,0,1,483.249,189v-.289a21.051,21.051,0,0,1,4.219-12.616,21.3,21.3,0,0,1,4.245-4.158A18.761,18.761,0,0,1,502.671,168.291Zm-16.58,20.568a18.314,18.314,0,0,0,4.5,12.134,16.1,16.1,0,0,0,24.094.342A18.562,18.562,0,0,0,515,176.725a16.1,16.1,0,0,0-24.092-.345A18.167,18.167,0,0,0,486.091,188.859Z" transform="translate(-386.365 -168.291)"/>
        <path id="Path_510" data-name="Path 510" class="cls-1" d="M597.731,168.758a1.386,1.386,0,0,1,1.349,1.145,1.269,1.269,0,0,1,.03.286q0,1.121-1.292,1.4H586.406a4.738,4.738,0,0,1,.054.69v35.71a1.5,1.5,0,0,1-1.149,1.664,1.81,1.81,0,0,1-.285.03H585a1.382,1.382,0,0,1-1.319-1.033,2.043,2.043,0,0,1-.086-.72V172.2a4.016,4.016,0,0,1,.056-.606H572.382a1.415,1.415,0,0,1-1.408-1.145,1.023,1.023,0,0,1-.03-.26c0-.743.436-1.222,1.316-1.431Z" transform="translate(-435.939 -168.555)"/>
      </g>
      <path id="Path_515" data-name="Path 515" class="cls-2" d="M529.014,212.934A3.02,3.02,0,1,1,526,209.911,3.016,3.016,0,0,1,529.014,212.934Z" transform="translate(-408.822 -191.818)"/>
      <path id="Path_516" data-name="Path 516" class="cls-2" d="M368.748,212.934a3.021,3.021,0,1,1-3.021-3.023A3.018,3.018,0,0,1,368.748,212.934Z" transform="translate(-318.224 -191.818)"/>
    </g>
    <g id="Group_3371" data-name="Group 3371" transform="translate(418.694 486.26)">
      <path id="Path_511" data-name="Path 511" class="cls-2" d="M262.755,6.271a21.112,21.112,0,0,1,10.419,2.785q3.611,2.238,3.616,4.592v.113a1.478,1.478,0,0,1-1,1.435c-.253.04-.393.059-.432.059A1.415,1.415,0,0,1,274,14.136a1.543,1.543,0,0,0-.515-1.294,8.015,8.015,0,0,0-1.808-1.405,18.377,18.377,0,0,0-8.869-2.352q-5.225,0-7.546,3.529a6.03,6.03,0,0,0-1.033,2.985v.259q0,3.641,8.435,8.78,5.02,3.13,8.122,5.28a35.432,35.432,0,0,1,3.186,2.755,9.128,9.128,0,0,1,2.87,6.171v.114a8.018,8.018,0,0,1-1.548,4.536,10.12,10.12,0,0,1-1.778,1.75,13.031,13.031,0,0,1-7.579,2.184c-3.789,0-8.58-.924-11.623-2.76a11.105,11.105,0,0,1-2.38-2.035,5.754,5.754,0,0,1-1.581-2.957,1.451,1.451,0,0,1,1.094-1.378,2.388,2.388,0,0,1,.313-.03q1.12,0,1.55,1.493,1.349,2.5,5.566,3.959a26.909,26.909,0,0,0,6.745.889q5.48,0,7.6-3.042a5.312,5.312,0,0,0,.805-2.752q0-3.5-6.66-7.835-1.406-.976-7.835-5.021a38.776,38.776,0,0,1-4.506-3.417q-3.615-3.445-3.614-6.514v-.6a9.36,9.36,0,0,1,2.267-5.394A11.594,11.594,0,0,1,262.755,6.271Z" transform="translate(-250.357 -6.215)"/>
      <path id="Path_512" data-name="Path 512" class="cls-2" d="M363.841,48.5a1.409,1.409,0,0,1,1.32,1.005c.019.192.03.327.03.4V76.023A1.378,1.378,0,0,1,364.1,77.37a1.594,1.594,0,0,1-.289.033,1.362,1.362,0,0,1-1.376-1.182,1.025,1.025,0,0,1-.027-.258V49.907a1.4,1.4,0,0,1,1.031-1.351A1.777,1.777,0,0,1,363.841,48.5Z" transform="translate(-329.89 -36.19)"/>
      <path id="Path_513" data-name="Path 513" class="cls-2" d="M394.243,6.079a2.6,2.6,0,0,1,1.777,1.176l13.862,13.717q.661-.6,14.522-14.608a1.651,1.651,0,0,1,.862-.285,1.4,1.4,0,0,1,1.349,1.06,1.731,1.731,0,0,1,.056.345V45.912a1.385,1.385,0,0,1-1.119,1.348,2.08,2.08,0,0,1-.286.033,1.444,1.444,0,0,1-1.434-1.266V10.983h-.058Q411.692,23.21,410.628,24.215a1.631,1.631,0,0,1-.686.173,2.447,2.447,0,0,1-1.721-1.121L395.764,10.959h-.057V45.912a1.394,1.394,0,0,1-1.149,1.348,1.546,1.546,0,0,1-.286.033c-.71,0-1.175-.415-1.4-1.236V7.512a1.392,1.392,0,0,1,1.09-1.378A1.28,1.28,0,0,1,394.243,6.079Z" transform="translate(-351.51 -6.079)"/>
      <path id="Path_514" data-name="Path 514" class="cls-2" d="M539.122,6.374q1.18,0,1.665,1.979.141.288,10.245,27.608,3.416,9.185,3.617,9.9c.02.132.027.208.027.23a1.46,1.46,0,0,1-1.119,1.375,2.722,2.722,0,0,1-.316.033h-.026c-.784,0-1.33-.606-1.636-1.809l-4.907-13.2H532.551q-4.419,13.579-4.675,14.264a1.427,1.427,0,0,1-1.207.75h-.116q-.948,0-1.348-1.152c-.019-.172-.03-.277-.03-.314q0-.319,4.105-12.687.4-1.4,8.523-26.2A1.491,1.491,0,0,1,539.122,6.374Zm.03,5.912q-5.279,16.04-5.623,17.247v.029h12.05v-.029q-6.25-16.962-6.4-17.247Z" transform="translate(-445.424 -6.288)"/>
      <path id="Path_517" data-name="Path 517" class="cls-2" d="M364.283,15.5a2.016,2.016,0,1,1-2.017-2.018A2.015,2.015,0,0,1,364.283,15.5Z" transform="translate(-328.36 -11.336)"/>
    </g>
    <g id="Group_3372" data-name="Group 3372" transform="translate(362.696 478)">
      <path id="Path_518" data-name="Path 518" class="cls-2" d="M61.98,0H37.2a4.093,4.093,0,0,0-4.315,3.827V46.57A4.094,4.094,0,0,0,37.2,50.4H61.98A4.093,4.093,0,0,0,66.3,46.57V3.827A4.093,4.093,0,0,0,61.98,0Zm2.846,45.033H34.514V6.077H64.826Z" transform="translate(-25.584)"/>
      <path id="Path_519" data-name="Path 519" class="cls-3" d="M105.58,13.972a.486.486,0,0,1-.485.487h-3.456a.489.489,0,0,1-.489-.487h0a.49.49,0,0,1,.489-.487H105.1a.487.487,0,0,1,.485.487Z" transform="translate(-78.696 -10.491)"/>
      <path id="Path_520" data-name="Path 520" class="cls-3" d="M98.789,212.8a.738.738,0,0,1-.739.739H92.816a.739.739,0,0,1-.737-.739h0a.741.741,0,0,1,.737-.739H98.05a.74.74,0,0,1,.739.739Z" transform="translate(-71.638 -164.983)"/>
      <path id="Path_521" data-name="Path 521" class="cls-2" d="M23.382,236.194a6.458,6.458,0,0,1,12.915,0" transform="translate(-18.191 -178.812)"/>
      <path id="Path_522" data-name="Path 522" class="cls-2" d="M135.018,236.194a6.456,6.456,0,0,1,12.911,0" transform="translate(-105.045 -178.812)"/>
      <path id="Path_523" data-name="Path 523" class="cls-2" d="M6.363,161.22a6.456,6.456,0,0,1,0-12.911" transform="translate(0 -115.386)"/>
      <path id="Path_524" data-name="Path 524" class="cls-2" d="M187.329,148.309a6.456,6.456,0,0,1,0,12.911" transform="translate(-145.744 -115.386)"/>
      <path id="Path_525" data-name="Path 525" class="cls-2" d="M94.808,132.609a3.959,3.959,0,0,1-3.981-3.929h.438a3.546,3.546,0,0,0,7.091,0h.436A3.96,3.96,0,0,1,94.808,132.609Z" transform="translate(-70.664 -100.114)"/>
      <path id="Path_526" data-name="Path 526" class="cls-2" d="M59.9,91.95h-.439a4.3,4.3,0,0,0-8.6,0h-.438a4.739,4.739,0,0,1,9.478,0Z" transform="translate(-39.233 -67.902)"/>
      <path id="Path_527" data-name="Path 527" class="cls-2" d="M135.684,91.95h-.437a4.3,4.3,0,0,0-8.6,0h-.439a4.738,4.738,0,0,1,9.476,0Z" transform="translate(-98.191 -67.902)"/>
    </g>
  </g>
</svg>
